<svg width="320" height="200" viewBox="0 0 320 200" fill="none" xmlns="http://www.w3.org/2000/svg">
  <rect width="320" height="200" rx="28" fill="url(#paint0_linear_1_1)" />
  <rect x="24" y="28" width="96" height="12" rx="6" fill="#74F7D0" opacity="0.9" />
  <rect x="132" y="28" width="64" height="12" rx="6" fill="#E9FCFF" opacity="0.65" />
  <rect x="24" y="60" width="272" height="48" rx="14" fill="url(#paint1_linear_1_1)" opacity="0.95" />
  <rect x="40" y="76" width="80" height="16" rx="8" fill="#05142D" opacity="0.85" />
  <rect x="132" y="76" width="120" height="16" rx="8" fill="#74F7D0" opacity="0.65" />
  <rect x="264" y="76" width="16" height="16" rx="8" fill="#74F7D0" opacity="0.45" />
  <rect x="24" y="124" width="132" height="52" rx="16" fill="url(#paint2_linear_1_1)" opacity="0.9" />
  <rect x="164" y="124" width="132" height="52" rx="16" fill="url(#paint3_linear_1_1)" opacity="0.9" />
  <rect x="40" y="140" width="84" height="12" rx="6" fill="#E9FCFF" opacity="0.7" />
  <rect x="180" y="140" width="92" height="12" rx="6" fill="#CFF9EA" opacity="0.9" />
  <rect x="180" y="160" width="64" height="10" rx="5" fill="#E9FCFF" opacity="0.5" />
  <rect x="40" y="160" width="58" height="10" rx="5" fill="#74F7D0" opacity="0.55" />
  <circle cx="272" cy="44" r="12" fill="#74F7D0" opacity="0.32" />
  <circle cx="294" cy="32" r="6" fill="#E9FCFF" opacity="0.6" />
  <defs>
    <linearGradient id="paint0_linear_1_1" x1="14" y1="12" x2="296" y2="188" gradientUnits="userSpaceOnUse">
      <stop stop-color="#021029" />
      <stop offset="1" stop-color="#041A3A" />
    </linearGradient>
    <linearGradient id="paint1_linear_1_1" x1="24" y1="60" x2="296" y2="108" gradientUnits="userSpaceOnUse">
      <stop stop-color="#0A2F49" />
      <stop offset="1" stop-color="#12385E" />
    </linearGradient>
    <linearGradient id="paint2_linear_1_1" x1="24" y1="124" x2="156" y2="176" gradientUnits="userSpaceOnUse">
      <stop stop-color="#0D2D4B" />
      <stop offset="1" stop-color="#04172D" />
    </linearGradient>
    <linearGradient id="paint3_linear_1_1" x1="164" y1="124" x2="296" y2="176" gradientUnits="userSpaceOnUse">
      <stop stop-color="#0E3B3F" />
      <stop offset="1" stop-color="#041F32" />
    </linearGradient>
  </defs>
</svg>
