<svg width="320" height="200" viewBox="0 0 320 200" fill="none" xmlns="http://www.w3.org/2000/svg">
  <rect width="320" height="200" rx="28" fill="url(#paint0_linear_11_2)" />
  <rect x="28" y="28" width="72" height="12" rx="6" fill="#F6F4FF" opacity="0.75" />
  <rect x="112" y="28" width="40" height="12" rx="6" fill="#DDD4FF" opacity="0.65" />
  <rect x="24" y="58" width="272" height="64" rx="18" fill="url(#paint1_linear_11_2)" opacity="0.95" />
  <rect x="40" y="74" width="120" height="20" rx="10" fill="#F6F4FF" opacity="0.9" />
  <rect x="40" y="102" width="160" height="12" rx="6" fill="#C1B5FF" opacity="0.75" />
  <rect x="208" y="72" width="72" height="44" rx="12" fill="#2D1848" opacity="0.8" />
  <circle cx="240" cy="94" r="16" fill="#E2D9FF" opacity="0.8" />
  <path d="M232 92.5L238 98L248 88" stroke="#2D1848" stroke-width="3" stroke-linecap="round" stroke-linejoin="round" opacity="0.65" />
  <rect x="24" y="136" width="104" height="44" rx="14" fill="url(#paint2_linear_11_2)" opacity="0.9" />
  <rect x="136" y="136" width="84" height="44" rx="14" fill="url(#paint3_linear_11_2)" opacity="0.9" />
  <rect x="228" y="136" width="68" height="44" rx="14" fill="url(#paint4_linear_11_2)" opacity="0.9" />
  <rect x="44" y="150" width="64" height="12" rx="6" fill="#F6F4FF" opacity="0.85" />
  <rect x="150" y="150" width="52" height="12" rx="6" fill="#E2D9FF" opacity="0.8" />
  <rect x="236" y="150" width="44" height="12" rx="6" fill="#DDD4FF" opacity="0.85" />
  <defs>
    <linearGradient id="paint0_linear_11_2" x1="26" y1="12" x2="288" y2="188" gradientUnits="userSpaceOnUse">
      <stop stop-color="#15062A" />
      <stop offset="1" stop-color="#120D32" />
    </linearGradient>
    <linearGradient id="paint1_linear_11_2" x1="24" y1="58" x2="296" y2="122" gradientUnits="userSpaceOnUse">
      <stop stop-color="#3B1E5F" />
      <stop offset="1" stop-color="#1F0F3E" />
    </linearGradient>
    <linearGradient id="paint2_linear_11_2" x1="24" y1="136" x2="128" y2="180" gradientUnits="userSpaceOnUse">
      <stop stop-color="#2B1747" />
      <stop offset="1" stop-color="#160A2C" />
    </linearGradient>
    <linearGradient id="paint3_linear_11_2" x1="136" y1="136" x2="220" y2="180" gradientUnits="userSpaceOnUse">
      <stop stop-color="#2E2153" />
      <stop offset="1" stop-color="#1D1035" />
    </linearGradient>
    <linearGradient id="paint4_linear_11_2" x1="228" y1="136" x2="296" y2="180" gradientUnits="userSpaceOnUse">
      <stop stop-color="#36275A" />
      <stop offset="1" stop-color="#1B0C33" />
    </linearGradient>
  </defs>
</svg>
