<svg width="320" height="200" viewBox="0 0 320 200" fill="none" xmlns="http://www.w3.org/2000/svg">
  <rect width="320" height="200" rx="28" fill="url(#paint0_linear_21_3)" />
  <rect x="24" y="32" width="80" height="12" rx="6" fill="#CFF9EA" opacity="0.85" />
  <rect x="116" y="32" width="52" height="12" rx="6" fill="#8BDDD1" opacity="0.6" />
  <rect x="24" y="64" width="272" height="48" rx="16" fill="url(#paint1_linear_21_3)" opacity="0.95" />
  <rect x="40" y="80" width="96" height="16" rx="8" fill="#05192A" opacity="0.8" />
  <rect x="148" y="80" width="72" height="16" rx="8" fill="#CFF9EA" opacity="0.7" />
  <rect x="232" y="78" width="48" height="20" rx="10" fill="#061A2F" opacity="0.85" />
  <rect x="24" y="124" width="272" height="52" rx="18" fill="url(#paint2_linear_21_3)" opacity="0.95" />
  <rect x="44" y="140" width="80" height="12" rx="6" fill="#E0FFF5" opacity="0.75" />
  <rect x="44" y="160" width="40" height="10" rx="5" fill="#8BDDD1" opacity="0.8" />
  <rect x="132" y="136" width="72" height="28" rx="10" fill="#05182C" opacity="0.8" />
  <rect x="140" y="144" width="56" height="12" rx="6" fill="#CFF9EA" opacity="0.75" />
  <g opacity="0.85">
    <circle cx="236" cy="150" r="16" fill="#CFF9EA" opacity="0.8" />
    <circle cx="236" cy="150" r="10" fill="#05192C" />
    <path d="M236 140V160" stroke="#CFF9EA" stroke-width="3" stroke-linecap="round" />
    <path d="M226 150H246" stroke="#CFF9EA" stroke-width="3" stroke-linecap="round" />
  </g>
  <defs>
    <linearGradient id="paint0_linear_21_3" x1="18" y1="10" x2="302" y2="190" gradientUnits="userSpaceOnUse">
      <stop stop-color="#031122" />
      <stop offset="1" stop-color="#041E31" />
    </linearGradient>
    <linearGradient id="paint1_linear_21_3" x1="24" y1="64" x2="296" y2="112" gradientUnits="userSpaceOnUse">
      <stop stop-color="#063245" />
      <stop offset="1" stop-color="#0B2639" />
    </linearGradient>
    <linearGradient id="paint2_linear_21_3" x1="24" y1="124" x2="296" y2="176" gradientUnits="userSpaceOnUse">
      <stop stop-color="#0A3245" />
      <stop offset="1" stop-color="#051C31" />
    </linearGradient>
  </defs>
</svg>
